<?xml version="1.0" standalone="no"?>
<!DOCTYPE svg PUBLIC "-//W3C//DTD SVG 20010904//EN"
 "http://www.w3.org/TR/2001/REC-SVG-20010904/DTD/svg10.dtd">
<svg version="1.0" xmlns="http://www.w3.org/2000/svg"
 width="70.000000pt" height="60.000000pt" viewBox="0 0 70.000000 60.000000"
 preserveAspectRatio="xMidYMid meet">

<g transform="translate(0.000000,60.000000) scale(0.100000,-0.100000)"
fill="#000000" stroke="none">
<path d="M112 540 c-48 -29 -76 -98 -69 -167 7 -70 42 -129 131 -218 79 -80
150 -120 193 -111 67 15 217 157 266 251 69 136 -20 289 -152 260 -16 -3 -50
-24 -74 -46 -25 -21 -51 -39 -59 -39 -8 0 -25 12 -39 26 -57 62 -138 80 -197
44z"/>
</svg>
